Coordinates
version=1
nRows=4
nColumns=63
inDegrees=yes

Units are S.I. units (second, meters, Newtons, ...)
If the header above contains a line with 'inDegrees', this indicates whether rotational values are in degrees (yes) or radians (no).

endheader
time	pelvis_tilt	pelvis_list	pelvis_rotation	pelvis_tx	pelvis_ty	pelvis_tz	hip_flexion_r	hip_adduction_r	hip_rotation_r	knee_angle_r	knee_angle_r_beta	ankle_angle_r	subtalar_angle_r	mtp_angle_r	hip_flexion_l	hip_adduction_l	hip_rotation_l	knee_angle_l	knee_angle_l_beta	ankle_angle_l	subtalar_angle_l	mtp_angle_l	L5_S1_Flex_Ext	L5_S1_Lat_Bending	L5_S1_axial_rotation	L4_L5_Flex_Ext	L4_L5_Lat_Bending	L4_L5_axial_rotation	L3_L4_Flex_Ext	L3_L4_Lat_Bending	L3_L4_axial_rotation	L2_L3_Flex_Ext	L2_L3_Lat_Bending	L2_L3_axial_rotation	L1_L2_Flex_Ext	L1_L2_Lat_Bending	L1_L2_axial_rotation	L1_T12_Flex_Ext	L1_T12_Lat_Bending	L1_T12_axial_rotation	Abs_r3	Abs_r2	Abs_r1	Abs_t1	Abs_t2	neck_flexion	neck_bending	neck_rotation	arm_flex_r	arm_add_r	arm_rot_r	elbow_flex_r	pro_sup_r	wrist_flex_r	wrist_dev_r	arm_flex_l	arm_add_l	arm_rot_l	elbow_flex_l	pro_sup_l	wrist_flex_l	wrist_dev_l
      1.48333333	     -1.00647223	     -5.67957977	     92.24218469	      0.17289550	      1.01442292	      0.40263708	     -7.80352137	      0.60780059	    -12.67608551	      1.43156764	      0.02498557	     31.89504549	     13.15479996	      0.00000000	     -6.92559593	     -0.31698810	    -14.32438405	      4.30291610	      0.07510005	     31.35776566	     14.60390155	      0.00000000	      0.61936237	     -0.02223193	     -0.00086956	      1.15021785	     -0.02956846	     -0.00092391	      1.01755043	     -0.05405471	     -0.00092391	      0.70786925	     -0.05405471	     -0.00076086	      0.57513989	     -0.04533534	     -0.00070652	      0.35390366	     -0.03443725	     -0.00065217	      4.42404345	     -0.25149200	     -0.00483623	      0.00000000	      0.00000000	     27.96697701	      0.20482291	    -10.08978634	    164.50758152	    -12.07949786	    152.96260418	     18.07530364	      2.28354970	     -3.08303414	      8.43364530	    153.60559960	     -5.18364794	     59.50349406	      7.34431679	     78.42235588	     -1.52513309	     15.71574746
      1.50000000	     -1.05288206	     -5.47339183	     92.44861786	      0.17282406	      1.01346687	      0.40309964	     -8.07325499	      0.59546231	    -12.31596716	      1.54673889	      0.02699569	     31.88681167	     12.68477060	      0.00000000	     -7.06904401	     -0.29968857	    -14.24514929	      4.39055283	      0.07662960	     31.41377382	     14.53427328	      0.00000000	      0.59462215	     -0.07744550	     -0.05555416	      1.10427279	     -0.10300251	     -0.05902629	      0.97690473	     -0.18830098	     -0.05902629	      0.67959365	     -0.18830098	     -0.04860989	      0.55216613	     -0.15792686	     -0.04513775	      0.33976710	     -0.11996307	     -0.04166562	      4.24732655	     -0.87607894	     -0.30897554	      0.00000000	      0.00000000	     27.90063233	      0.61669111	    -12.15517795	    163.33492781	    -14.30961836	    150.57558224	     17.98936191	      2.11104697	     -4.84733429	      9.40376008	    152.81404496	     -4.28231042	     58.20750759	      8.48725810	     76.81519005	     -1.11494679	     14.73592464
      1.51666667	     -1.00956070	     -5.17621933	     92.61927154	      0.17255863	      1.01250374	      0.40396807	     -8.38816612	      0.64450001	    -12.21343119	      1.79592235	      0.03134476	     31.87429057	     12.48110251	      0.00000000	     -7.29383073	     -0.34202276	    -13.95888498	      4.46052098	      0.07785078	     31.48603375	     14.15585389	      0.00000000	      0.56161455	     -0.10578082	     -0.09858606	      1.04297437	     -0.14068849	     -0.10474769	      0.92267654	     -0.25719548	     -0.10474769	      0.64186927	     -0.25719548	     -0.08626280	      0.52151527	     -0.21570824	     -0.08010118	      0.32090655	     -0.16385448	     -0.07393955	      4.01155654	     -1.19661374	     -0.54830610	      0.00000000	      0.00000000	     27.72071791	      0.72136325	    -12.33921855	    161.77433117	    -16.12046782	    147.40007808	     17.45072866	      2.25438540	     -6.31305355	     10.22635523	    151.90073762	     -3.69042989	     58.38547606	     10.00572164	     76.72213248	      0.77448842	     13.62203047
      1.53333333	     -1.28205327	     -5.05792522	     92.97665068	      0.17351652	      1.01081088	      0.40406947	     -8.62031736	      0.48320461	    -12.54263400	      2.03209112	      0.03546668	     31.98284906	     12.35503798	      0.00000000	     -7.38423914	     -0.14327980	    -13.15051898	      4.47912969	      0.07817556	     31.57006386	     13.47873773	      0.00000000	      0.56959364	     -0.12230926	     -0.35321882	      1.05779234	     -0.16267132	     -0.37529499	      0.93578538	     -0.29738273	     -0.37529499	      0.65098857	     -0.29738273	     -0.30906647	      0.52892465	     -0.24941304	     -0.28699029	      0.32546580	     -0.18945704	     -0.26491411	      4.06855038	     -1.38358681	     -1.96449710	      0.00000000	      0.00000000	     27.50842490	      0.04279237	     -5.28501339	    159.06358797	    -16.33477139	    141.94430151	     16.00863900	      3.04110769	     -7.65588648	     11.41144472	    162.13631263	     -5.44718072	    144.70862179	     21.97829052	      3.16052457	     -5.11090136	      4.13601960
